<svg width="21" height="22" viewBox="0 0 21 22" fill="none" xmlns="http://www.w3.org/2000/svg">
<path d="M7.15653 5.36538C7.28321 3.40785 8.88688 1.86538 10.8394 1.86538C12.792 1.86538 14.3957 3.40785 14.5224 5.36538H7.15653ZM10.8394 0.75C8.26937 0.75 6.17664 2.79762 6.04839 5.36538H3.18879C1.94448 5.36538 0.987548 6.46738 1.13456 7.71085L2.51694 19.4032C2.64118 20.454 3.52082 21.25 4.57117 21.25H16.5014C17.5518 21.25 18.4314 20.454 18.5557 19.4032L19.938 7.71085C20.085 6.46738 19.1281 5.36538 17.8838 5.36538H15.6305C15.5023 2.79762 13.4095 0.75 10.8394 0.75ZM3.18879 6.48077H17.8838C18.457 6.48077 18.909 6.99075 18.8395 7.57883L17.4571 19.2711C17.3985 19.7668 16.9856 20.1346 16.5014 20.1346H4.57117C4.08696 20.1346 3.67407 19.7668 3.61547 19.2711L2.23309 7.57882C2.16356 6.99075 2.61563 6.48077 3.18879 6.48077Z" fill="black" stroke="black" stroke-width="0.5"/>
<path d="M10.9588 16C10.632 16 10.3402 15.925 10.0834 15.775C9.82668 15.6223 9.60752 15.4121 9.42596 15.1442C9.24441 14.8764 9.10565 14.5671 9.00968 14.2162C8.91631 13.8627 8.86963 13.485 8.86963 13.0833C8.86963 12.6815 8.91631 12.3039 9.00968 11.9504C9.10565 11.5968 9.24441 11.2875 9.42596 11.0223C9.60752 10.7545 9.82668 10.5456 10.0834 10.3956C10.3402 10.243 10.632 10.1666 10.9588 10.1666C11.283 10.1666 11.5735 10.243 11.8303 10.3956C12.087 10.5456 12.3049 10.7545 12.4839 11.0223C12.6628 11.2875 12.799 11.5968 12.8923 11.9504C12.9883 12.3039 13.0363 12.6815 13.0363 13.0833C13.0363 13.485 12.9883 13.8627 12.8923 14.2162C12.799 14.5671 12.6628 14.8764 12.4839 15.1442C12.3049 15.4121 12.087 15.6223 11.8303 15.775C11.5735 15.925 11.283 16 10.9588 16ZM10.9588 15.4375C11.3012 15.4375 11.5878 15.329 11.8186 15.1121C12.052 14.8952 12.2271 14.6086 12.3438 14.2524C12.4605 13.8935 12.5189 13.5038 12.5189 13.0833C12.5189 12.6387 12.4579 12.2396 12.336 11.8861C12.2167 11.5299 12.0403 11.2487 11.8069 11.0424C11.5761 10.8335 11.2934 10.7291 10.9588 10.7291C10.6942 10.7291 10.4634 10.792 10.2663 10.9179C10.0692 11.0438 9.90578 11.2165 9.7761 11.4361C9.64642 11.6558 9.54916 11.9075 9.48432 12.1914C9.41948 12.4726 9.38706 12.7699 9.38706 13.0833C9.38706 13.5065 9.44671 13.8975 9.56602 14.2564C9.68533 14.6126 9.86169 14.8992 10.0951 15.1161C10.3285 15.3304 10.6164 15.4375 10.9588 15.4375Z" fill="black" stroke="black"/>
</svg>
