<svg width="127" height="52" viewBox="0 0 127 52" fill="none" xmlns="http://www.w3.org/2000/svg">
<path d="M29.365 52H20.9672V51.6503H21.256C21.5447 51.6503 21.7853 51.6253 21.9538 51.6003C22.1222 51.5753 22.2425 51.4754 22.3388 51.3255C22.435 51.1756 22.4832 50.9258 22.5072 50.626C22.5313 50.3262 22.5313 49.8766 22.5313 49.3519V44.3057C22.5313 43.9559 22.5313 43.6811 22.5313 43.4813C22.5313 43.2814 22.5072 43.1066 22.5072 42.9567C22.5072 42.8318 22.4832 42.7069 22.4591 42.6569C22.435 42.582 22.411 42.507 22.3629 42.4321C22.3147 42.3571 22.2666 42.3072 22.2185 42.2572C22.1704 42.2072 22.0982 42.1823 22.026 42.1573C21.9538 42.1323 21.8335 42.1073 21.7132 42.1073C21.5928 42.1073 21.4244 42.0823 21.2078 42.0823H20.9913V41.7576H25.7316V42.1073H25.2985C25.0819 42.1073 24.9135 42.1073 24.7932 42.1323C24.6729 42.1323 24.5525 42.1573 24.4804 42.1823C24.3841 42.2072 24.336 42.2322 24.2879 42.2822C24.2397 42.3321 24.1916 42.3821 24.1675 42.4571C24.1194 42.532 24.0954 42.6069 24.0713 42.6819C24.0472 42.7568 24.0232 42.8568 24.0232 42.9817C24.0232 43.1066 23.9991 43.2814 23.9991 43.4813C23.9991 43.6811 23.9991 43.9809 23.9991 44.3057V49.6767C23.9991 50.0015 23.9991 50.2763 23.9991 50.4511C23.9991 50.651 23.9991 50.8009 24.0232 50.9008C24.0232 51.0007 24.0472 51.1007 24.0713 51.1506C24.0954 51.2006 24.1194 51.2505 24.1675 51.3255C24.2638 51.4504 24.4082 51.5503 24.6007 51.6003C24.7932 51.6502 25.0819 51.6752 25.491 51.6752H26.261C26.5497 51.6752 26.7904 51.6752 27.0069 51.6503C27.2235 51.6253 27.3919 51.6003 27.5604 51.5503C27.7047 51.5004 27.8491 51.4254 27.9694 51.3505C28.0897 51.2505 28.186 51.1506 28.3063 51.0257C28.4988 50.7759 28.6432 50.5261 28.7635 50.2263C28.8838 49.9265 29.0041 49.5518 29.1485 49.1271L29.1725 49.0272H29.5094L29.365 52Z" fill="black"/>
<path d="M44.8854 47.1067C44.8854 47.8023 44.7395 48.4499 44.472 49.0496C44.2044 49.6493 43.8153 50.177 43.3532 50.6087C42.8667 51.0405 42.3073 51.3763 41.6506 51.6162C40.9939 51.8561 40.2886 52 39.5346 52C38.7077 52 37.9537 51.8801 37.2727 51.6162C36.5917 51.3763 36.0079 51.0165 35.5215 50.5608C35.0351 50.105 34.6702 49.5773 34.4027 48.9297C34.1352 48.306 34.0135 47.5864 34.0135 46.7948C34.0135 46.0512 34.1352 45.3796 34.4027 44.7559C34.6702 44.1323 35.0351 43.6046 35.5215 43.1728C36.0079 42.741 36.5674 42.3812 37.224 42.1414C37.8807 41.9015 38.6104 41.7576 39.413 41.7576C40.1427 41.7576 40.848 41.8775 41.529 42.1174C42.2344 42.3572 42.8181 42.6691 43.2802 43.1008C44.3504 44.0363 44.8854 45.3556 44.8854 47.1067ZM43.1829 46.9867C43.1829 45.4036 42.8667 44.2042 42.2344 43.3647C41.602 42.5491 40.6534 42.1414 39.413 42.1414C38.1969 42.1414 37.2727 42.5491 36.6403 43.3647C36.0079 44.1802 35.6918 45.3556 35.6918 46.8908C35.6918 47.5144 35.7404 48.0901 35.862 48.6418C35.9836 49.1935 36.1539 49.6733 36.3485 50.057C36.543 50.4169 36.8106 50.7287 37.1511 50.9686C37.4673 51.2084 37.8321 51.3763 38.2212 51.4723C38.6104 51.5922 39.0482 51.6402 39.5346 51.6402C40.7021 51.6402 41.5777 51.2324 42.2344 50.4169C42.8667 49.6013 43.1829 48.4499 43.1829 46.9867Z" fill="black"/>
<path d="M59.5091 42.1965C59.315 42.2453 59.1451 42.3428 59.0238 42.4648C58.9024 42.5867 58.8296 42.733 58.7811 42.9525C58.7326 43.172 58.7083 43.3915 58.7083 43.7085V52H58.3928L51.3795 42.6111L51.3552 49.5613V50.0491C51.3552 50.5612 51.4765 50.927 51.7435 51.1221C52.0104 51.3172 52.4472 51.4391 53.1025 51.4391V51.7805H49.3895V51.4391C49.7293 51.4147 50.0205 51.3659 50.2389 51.3172C50.4573 51.2684 50.6272 51.1708 50.7242 51.0489C50.8456 50.927 50.9184 50.7319 50.9427 50.5124C50.9669 50.2685 50.9912 49.9759 50.9912 49.5857V44.2694C50.9912 43.7573 50.9669 43.3671 50.9427 43.0744C50.9184 42.7818 50.8456 42.5623 50.7728 42.4404C50.6757 42.2941 50.5301 42.1965 50.3602 42.1721C50.1661 42.1234 49.9234 42.1234 49.6079 42.1234H49.5351V41.7576H52.4715L58.3443 49.5857L58.3685 43.5866C58.3685 43.2939 58.3443 43.0501 58.2957 42.855C58.2472 42.6599 58.1501 42.5136 58.0288 42.3916C57.9075 42.2697 57.7376 42.1965 57.5192 42.1478C57.3008 42.099 57.0338 42.0746 56.6941 42.0746V41.7576H60.2614V42.099C59.9702 42.099 59.7033 42.1478 59.5091 42.1965Z" fill="black"/>
<path d="M74.8608 46.9285C74.8608 48.271 74.5778 49.3648 73.9881 50.1852C73.3984 51.0056 72.5729 51.5525 71.4407 51.826C71.2048 51.8757 70.9689 51.9254 70.7331 51.9503C70.4972 51.9751 70.2849 52 70.049 52H69.0584H64.7655V51.6519H65.1665C65.4495 51.6519 65.6854 51.6271 65.8505 51.6022C66.0156 51.5774 66.1336 51.4779 66.2279 51.3288C66.3223 51.1796 66.3694 50.931 66.393 50.6327C66.4166 50.3344 66.4166 49.8869 66.4166 49.3648V44.4425C66.4166 44.0944 66.4166 43.821 66.4166 43.6221C66.4166 43.4232 66.393 43.2492 66.393 43.1249C66.3694 43.0006 66.3694 42.9011 66.3458 42.8266C66.3223 42.752 66.2987 42.6774 66.2515 42.6277C66.2043 42.5531 66.1571 42.5034 66.11 42.4537C66.0628 42.4039 65.992 42.3791 65.9213 42.3542C65.8269 42.3294 65.7326 42.3294 65.6146 42.3045C65.4967 42.3045 65.3316 42.2796 65.1429 42.2796H64.8599V41.9316L66.4638 41.857L67.6431 41.8073C67.8554 41.8073 68.0913 41.7824 68.3743 41.7824C68.6574 41.7824 68.9169 41.7576 69.1527 41.7576C70.1198 41.7576 70.9218 41.857 71.5822 42.0559C72.2426 42.2548 72.8087 42.578 73.3041 43.0254C73.823 43.4978 74.224 44.0696 74.4834 44.7408C74.7429 45.3872 74.8608 46.133 74.8608 46.9285ZM73.3277 47.1274C73.3277 46.4064 73.2569 45.7352 73.0918 45.1386C72.9267 44.5419 72.7144 44.0199 72.4078 43.5724C72.1247 43.1497 71.7473 42.8017 71.2992 42.5531C70.851 42.3045 70.3557 42.1553 69.8132 42.1056C69.6952 42.1056 69.5537 42.0808 69.4358 42.0808C69.3178 42.0808 69.1763 42.0808 69.0348 42.0808C68.7989 42.0808 68.5866 42.0808 68.4215 42.0808C68.2564 42.0808 68.0441 42.0808 67.8318 42.1056V48.9173C67.8318 49.3897 67.8318 49.7626 67.8318 50.036C67.8318 50.3095 67.8554 50.5332 67.8554 50.6824C67.8554 50.8316 67.879 50.9559 67.9026 51.0304C67.9262 51.105 67.9734 51.1796 67.997 51.2542C68.0913 51.4033 68.2092 51.5028 68.3979 51.5525C68.5866 51.6022 68.8933 51.6271 69.3178 51.6271C69.7188 51.6271 70.0962 51.6022 70.4264 51.5525C70.7567 51.5028 71.0397 51.4282 71.2992 51.3288C71.5586 51.2293 71.7709 51.0802 71.9832 50.931C72.1719 50.757 72.3606 50.5581 72.5021 50.3095C72.7852 49.8869 72.9974 49.3897 73.139 48.8676C73.2569 48.3953 73.3277 47.7986 73.3277 47.1274Z" fill="black"/>
<path d="M90.2369 47.1067C90.2369 47.8023 90.0909 48.4499 89.8234 49.0496C89.5559 49.6493 89.1667 50.177 88.7046 50.6087C88.2182 51.0405 87.6588 51.3763 87.0021 51.6162C86.3454 51.8561 85.64 52 84.8861 52C84.0591 52 83.3051 51.8801 82.6241 51.6162C81.9431 51.3763 81.3594 51.0165 80.8729 50.5608C80.3865 50.105 80.0217 49.5773 79.7541 48.9297C79.4866 48.306 79.365 47.5864 79.365 46.7948C79.365 46.0512 79.4866 45.3796 79.7541 44.7559C80.0217 44.1323 80.3865 43.6046 80.8729 43.1728C81.3594 42.741 81.9188 42.3812 82.5755 42.1414C83.2322 41.9015 83.9618 41.7576 84.7645 41.7576C85.4941 41.7576 86.1994 41.8775 86.8805 42.1174C87.5858 42.3572 88.1695 42.6691 88.6316 43.1008C89.7018 44.0363 90.2369 45.3556 90.2369 47.1067ZM88.5343 46.9867C88.5343 45.4036 88.2182 44.2042 87.5858 43.3647C86.9534 42.5491 86.0049 42.1414 84.7645 42.1414C83.5484 42.1414 82.6241 42.5491 81.9918 43.3647C81.3594 44.1802 81.0432 45.3556 81.0432 46.8908C81.0432 47.5144 81.0918 48.0901 81.2135 48.6418C81.3351 49.1935 81.5053 49.6733 81.6999 50.057C81.8945 50.4169 82.162 50.7287 82.5025 50.9686C82.8187 51.2084 83.1835 51.3763 83.5727 51.4723C83.9618 51.5922 84.3996 51.6402 84.8861 51.6402C86.0535 51.6402 86.9291 51.2324 87.5858 50.4169C88.2182 49.6013 88.5343 48.4499 88.5343 46.9867Z" fill="black"/>
<path d="M105.535 42.1965C105.328 42.2453 105.147 42.3428 105.017 42.4648C104.888 42.5867 104.81 42.733 104.759 42.9525C104.707 43.1476 104.681 43.3915 104.681 43.7085V52H104.344L96.8636 42.6111L96.8377 49.5613V50.0491C96.8377 50.5612 96.9671 50.927 97.2519 51.1221C97.5366 51.3172 98.0025 51.4391 98.7014 51.4391V51.7805H94.741V51.4391C95.1034 51.4147 95.414 51.3659 95.647 51.3172C95.8799 51.2684 96.0611 51.1708 96.1647 51.0489C96.2941 50.927 96.3717 50.7319 96.3976 50.5124C96.4235 50.2685 96.4494 49.9759 96.4494 49.5857V44.2694C96.4494 43.7573 96.4235 43.3671 96.3976 43.0744C96.3717 42.7818 96.2941 42.5623 96.2164 42.4404C96.1129 42.2941 95.9576 42.1965 95.7764 42.1721C95.5693 42.1234 95.3104 42.1234 94.9739 42.1234H94.8963V41.7576H98.0284L104.293 49.5857L104.319 43.5866C104.319 43.2939 104.293 43.0501 104.241 42.855C104.189 42.6599 104.086 42.5136 103.956 42.3916C103.827 42.2697 103.646 42.1965 103.413 42.1478C103.18 42.099 102.895 42.0746 102.532 42.0746V41.7576H106.389V42.099C106.001 42.099 105.742 42.1478 105.535 42.1965Z" fill="black"/>
<path d="M25.4114 33.0874C25.1334 32.89 24.8832 32.7207 24.6886 32.5515C24.4939 32.3822 24.2993 32.213 24.1047 32.0155C23.9101 31.8181 23.6877 31.5924 23.4652 31.3386C23.2428 31.0847 22.937 30.7462 22.6034 30.2949C22.0473 29.6461 21.5747 29.0255 21.1576 28.4614C20.7406 27.8972 20.3514 27.3895 19.9899 26.8818C19.7953 26.6279 19.2671 25.8381 18.3774 24.5123C17.4599 23.2148 16.5424 21.9455 15.5972 20.7325C14.6519 19.5196 13.9012 18.6452 13.3452 18.1374C12.8169 17.6579 12.0663 17.404 11.0654 17.404H9.75865V24.6252C9.75865 26.374 9.78645 27.728 9.84206 28.7153C9.89766 29.7025 10.0645 30.4359 10.3425 30.9155C10.6205 31.395 11.0098 31.7053 11.5658 31.8181C12.0941 31.9309 12.8447 31.9873 13.8178 31.9873H15.3747V33.0592H0V31.9873H1.05649C2.02958 31.9873 2.78024 31.9309 3.30849 31.8181C3.83673 31.7053 4.25377 31.395 4.53179 30.9155C4.80982 30.4359 4.97663 29.6743 5.03224 28.7153C5.08784 27.728 5.11565 26.374 5.11565 24.6252V8.6315C5.11565 7.55962 5.11565 6.68518 5.08784 6.0082C5.06004 5.33122 5.03224 4.79528 5.00444 4.37217C4.94883 3.94905 4.89323 3.61056 4.83762 3.3849C4.78202 3.15924 4.67081 2.93358 4.5596 2.70792C4.30938 2.2566 3.94794 1.94632 3.4753 1.83349C3.00266 1.69245 2.11298 1.63604 0.778468 1.63604H0.250222V0.507736L4.86542 0.253868C5.22686 0.22566 5.6995 0.197453 6.28335 0.169245C6.8672 0.141038 7.56226 0.141038 8.34073 0.0846226C9.1748 0.0564151 9.92547 0.0282075 10.5371 0C11.1766 0.0282075 11.7048 0.0282075 12.1219 0.0282075C14.8743 0.0282075 17.1263 0.253868 18.8778 0.705188C20.6294 1.15651 22.1307 1.8899 23.3262 2.87717C25.1334 4.34396 26.0509 6.20566 26.0509 8.43405C26.0509 10.6907 25.2446 12.5523 23.6321 14.0191C22.0195 15.4859 19.7675 16.3604 16.9039 16.6424C17.1263 16.7835 17.3209 16.8963 17.4599 16.9809C17.5989 17.0656 17.7379 17.2066 17.9048 17.3194C18.0438 17.4605 18.2106 17.6015 18.3774 17.799C18.5442 17.9682 18.7944 18.2221 19.0725 18.5041C19.7397 19.2375 20.3514 19.8863 20.8518 20.5069C21.3523 21.1274 21.9361 21.8326 22.5756 22.7071L24.2159 24.9072C25.4392 26.5433 26.5235 27.8408 27.441 28.8281C28.3585 29.7871 29.276 30.5205 30.1934 31.0283C30.7773 31.395 31.3333 31.6206 31.8894 31.7335C32.4454 31.8463 33.1683 31.9309 34.058 32.0155V33.0874H25.4114ZM20.8518 8.82896C20.8518 7.19292 20.5738 5.81075 20.0455 4.68245C19.5173 3.55415 18.7388 2.73613 17.6823 2.2566C17.0151 1.91811 16.181 1.69245 15.2357 1.55141C14.2904 1.41038 13.1227 1.32575 11.7604 1.32575C11.399 1.32575 11.0932 1.32575 10.8429 1.32575C10.5927 1.32575 10.2035 1.35396 9.73085 1.38217V16.2757H10.2869L12.4555 16.2193C14.1792 16.1629 15.625 15.909 16.8483 15.5141C18.0716 15.091 18.9334 14.5269 19.4895 13.7653C20.407 12.5524 20.8518 10.8881 20.8518 8.82896Z" fill="black"/>
<path d="M41.8236 33.0874V32.0155H42.7411C43.7142 32.0155 44.4648 31.9591 44.9931 31.8463C45.5213 31.7335 45.9384 31.4232 46.2164 30.9436C46.4944 30.4641 46.6612 29.7025 46.7168 28.7435C46.7724 27.7562 46.8002 26.4022 46.8002 24.6534V8.63149C46.8002 7.5596 46.8002 6.68517 46.8002 6.00819C46.8002 5.33121 46.7724 4.79527 46.7446 4.37215C46.7168 3.94904 46.6612 3.61055 46.5778 3.38489C46.4944 3.15923 46.3832 2.93357 46.272 2.70791C46.0218 2.25659 45.6603 1.9463 45.1877 1.83347C44.7151 1.69244 43.8254 1.63602 42.4909 1.63602H41.8236V0.507721H56.5033V1.57961H55.7804C55.1132 1.57961 54.5571 1.60781 54.1401 1.63602C53.723 1.66423 53.3616 1.72064 53.1114 1.80527C52.8334 1.88989 52.6388 2.00272 52.4719 2.11555C52.3329 2.25659 52.1939 2.42583 52.0549 2.65149C51.9159 2.87715 51.8325 3.13102 51.7491 3.35668C51.6657 3.61055 51.6101 3.92083 51.5823 4.34395C51.5545 4.76706 51.5267 5.303 51.4989 5.97998C51.4711 6.65696 51.471 7.5314 51.471 8.60328V24.597C51.471 26.3458 51.4989 27.6998 51.5545 28.687C51.6101 29.6743 51.7769 30.4077 52.0549 30.8872C52.3329 31.3668 52.7222 31.677 53.2782 31.7899C53.8065 31.9027 54.5571 31.9591 55.5302 31.9591H56.5033V33.031H41.8236V33.0874Z" fill="black"/>
<path d="M82.7576 9.7316C82.7576 11.1984 82.5074 12.5524 82.0347 13.7653C81.5621 14.9782 80.728 16.304 79.6159 17.7425C78.8374 18.7016 77.9756 19.6607 77.0581 20.6761C76.1128 21.6634 75.0007 22.8199 73.7218 24.1457C72.3873 25.4714 71.164 26.6561 70.0241 27.728C68.8842 28.7999 67.9945 29.6179 67.355 30.1821H82.3962L81.0894 35.5979H79.9217V35.203C79.9217 35.1748 79.9773 35.0056 80.0608 34.7235C80.1164 34.526 80.1442 34.3004 80.1442 34.0747C80.1442 33.6234 80.0608 33.3413 79.8661 33.2285C79.6715 33.1439 79.1155 33.0874 78.1702 33.0874H64.269V31.6206C64.6582 31.2822 64.9918 31.0001 65.2977 30.7462C65.6035 30.4923 65.9093 30.2385 66.1595 29.9846C66.4376 29.7307 66.7156 29.4487 67.0214 29.1102C67.3272 28.7999 67.6887 28.4332 68.1057 28.0101C69.329 26.769 70.5523 25.415 71.7756 24.0046C72.9989 22.566 74.0276 21.2967 74.8895 20.1402C77.5029 16.6707 78.8096 13.314 78.8096 10.0419C78.8096 7.475 78.2536 5.52868 77.1137 4.14651C75.9738 2.76434 74.3613 2.08736 72.2761 2.08736C71.4976 2.08736 70.7747 2.2284 70.1075 2.53868C69.4402 2.82076 68.8564 3.21566 68.3559 3.7234C67.8833 4.20293 67.4941 4.79529 67.1882 5.47227C66.9102 6.14925 66.7434 6.88264 66.7434 7.67245C66.7434 9.16745 67.3829 10.4086 68.634 11.3112C68.9954 11.5651 69.19 11.7343 69.2734 11.7908C69.329 11.8472 69.3568 11.96 69.3568 12.0728C69.3568 12.2421 69.2734 12.4395 69.0788 12.6934C68.8842 12.9473 68.634 13.2011 68.3003 13.455C67.8555 13.8217 67.4941 13.9909 67.2438 13.9909C67.0492 13.9909 66.7712 13.8781 66.4098 13.6525C65.8537 13.1729 65.4089 12.4677 65.0474 11.5933C64.686 10.7189 64.5192 9.78802 64.5192 8.82896C64.5192 7.67245 64.7416 6.62878 65.2143 5.64151C65.6869 4.65425 66.3264 3.80802 67.1604 3.07463C67.9945 2.34123 68.9676 1.80529 70.1075 1.41038C71.2474 1.01548 72.4707 0.818024 73.8052 0.818024C75.0841 0.818024 76.3074 1.04368 77.3917 1.495C78.5038 1.94632 79.4491 2.56689 80.2276 3.3567C81.006 4.17472 81.6455 5.10557 82.0903 6.17745C82.5074 7.24934 82.7576 8.43406 82.7576 9.7316Z" fill="black"/>
<path d="M110.402 33.0874V32.0155H111.041C112.515 32.0155 113.571 31.9027 114.155 31.6488C114.739 31.395 115.017 31.0001 115.017 30.4359C115.017 30.041 114.767 29.5051 114.266 28.8281C113.766 28.1511 112.876 27.192 111.625 25.8945L102.562 16.586L100.282 18.6452V24.597C100.282 26.3458 100.31 27.6998 100.365 28.687C100.421 29.6743 100.588 30.4077 100.866 30.8872C101.144 31.3668 101.533 31.677 102.089 31.7899C102.617 31.9027 103.368 31.9591 104.341 31.9591H104.98V33.031H90.5232V31.9591H91.5519C92.525 31.9591 93.2756 31.9027 93.8039 31.7899C94.3321 31.677 94.7492 31.3668 95.0272 30.8872C95.3052 30.4077 95.472 29.6461 95.5276 28.687C95.5832 27.6998 95.611 26.3458 95.611 24.597V8.63149C95.611 7.5596 95.611 6.68517 95.5832 6.00819C95.5554 5.33121 95.5554 4.79527 95.4998 4.37215C95.472 3.94904 95.4164 3.61055 95.333 3.38489C95.2496 3.15923 95.1384 2.93357 95.0272 2.70791C94.8882 2.48225 94.7492 2.2848 94.5823 2.17197C94.4155 2.03093 94.2209 1.9463 93.9429 1.86168C93.6927 1.77706 93.3312 1.72064 92.9142 1.69244C92.4972 1.66423 91.9411 1.63602 91.2739 1.63602H90.9402V0.507721H105.147V1.57961H104.563C103.896 1.57961 103.34 1.60781 102.923 1.63602C102.506 1.66423 102.145 1.72064 101.867 1.80527C101.589 1.88989 101.366 2.00272 101.199 2.11555C101.033 2.25659 100.893 2.42583 100.754 2.65149C100.615 2.87715 100.532 3.13102 100.449 3.35668C100.365 3.61055 100.31 3.92083 100.282 4.34395C100.254 4.76706 100.226 5.303 100.226 5.97998C100.226 6.65696 100.226 7.5314 100.226 8.60328V17.0655L110.013 8.12375C111.292 6.93904 112.181 6.0364 112.682 5.38762C113.154 4.73885 113.405 4.1747 113.405 3.69517C113.405 3.01819 113.127 2.51046 112.598 2.17197C112.07 1.83347 111.208 1.63602 110.013 1.57961V0.507721H122.079V1.57961C120.828 1.60781 119.577 1.9463 118.353 2.62329C117.13 3.27206 115.74 4.31574 114.239 5.72611L111.681 8.12375L105.87 13.596L117.881 25.9509L120.439 28.546C121.106 29.223 121.718 29.7871 122.246 30.2102C122.774 30.6334 123.274 30.9719 123.775 31.2539C124.275 31.5078 124.776 31.7052 125.304 31.8181C125.832 31.9309 126.388 31.9873 127 31.9873V33.0592H110.402V33.0874Z" fill="black"/>
</svg>
