<svg width="37" height="37" viewBox="0 0 37 37" fill="none" xmlns="http://www.w3.org/2000/svg">
<path d="M18.5007 0.583252C8.62857 0.583252 0.583984 8.62784 0.583984 18.4999C0.583984 28.372 8.62857 36.4166 18.5007 36.4166C28.3727 36.4166 36.4173 28.372 36.4173 18.4999C36.4173 8.62784 28.3727 0.583252 18.5007 0.583252ZM27.0648 14.3791L16.9061 24.5378C16.6552 24.7887 16.3148 24.932 15.9565 24.932C15.5982 24.932 15.2577 24.7887 15.0069 24.5378L9.93648 19.4674C9.4169 18.9478 9.4169 18.0878 9.93648 17.5683C10.4561 17.0487 11.3161 17.0487 11.8357 17.5683L15.9565 21.6891L25.1657 12.4799C25.6852 11.9603 26.5452 11.9603 27.0648 12.4799C27.5844 12.9995 27.5844 13.8416 27.0648 14.3791Z" fill="black"/>
</svg>
